<?xml version="1.0" encoding="utf-8"?>
<!-- Generator: Adobe Illustrator 26.0.3, SVG Export Plug-In . SVG Version: 6.00 Build 0)  -->
<svg version="1.1" id="ed4cf98c-c73a-46fc-b498-01c41f98a1b6"
	 xmlns="http://www.w3.org/2000/svg" xmlns:xlink="http://www.w3.org/1999/xlink" x="0px" y="0px" viewBox="0 0 1680 234.7"
	 style="enable-background:new 0 0 1680 234.7;" xml:space="preserve">
<style type="text/css">
	.st0{opacity:0.4;fill:url(#SVGID_1_);enable-background:new    ;}
	.st1{opacity:0.4;fill:url(#SVGID_00000132775175960032465700000007551616168031758985_);enable-background:new    ;}
	.st2{opacity:0.4;fill:url(#SVGID_00000007401779242589221240000016804213817322081174_);enable-background:new    ;}
</style>
<g>
	
		<linearGradient id="SVGID_1_" gradientUnits="userSpaceOnUse" x1="969.4266" y1="-108.5959" x2="970.4266" y2="-108.5959" gradientTransform="matrix(1680 0 0 916.53 -1628630 99268.1406)">
		<stop  offset="0" style="stop-color:#84EACB"/>
		<stop  offset="1" style="stop-color:#3ABAE0"/>
	</linearGradient>
	<path class="st0" d="M0-721.6v858.9c112,49.2,224,63.4,336,42.5s224-36.3,336-46.2c112-10,224,2.3,336,36.8s224,32.7,336-5.6
		c112-38.3,224-44.6,336-18.9v-867.5L0-721.6z"/>
	
		<linearGradient id="SVGID_00000023248607809034592780000004774644172325989524_" gradientUnits="userSpaceOnUse" x1="969.4266" y1="-108.5839" x2="970.4266" y2="-108.5839" gradientTransform="matrix(1680 0 0 925.87 -1628630 100275.9453)">
		<stop  offset="0" style="stop-color:#84EACB"/>
		<stop  offset="1" style="stop-color:#3ABAE0"/>
	</linearGradient>
	<path style="opacity:0.4;fill:url(#SVGID_00000023248607809034592780000004774644172325989524_);enable-background:new    ;" d="
		M0-721.6v868.9c112,43,224,52.8,336,29.5s224-22.5,336,2.4c112,24.9,224,31.3,336,19.1c111.6-12.1,223.8-17,336-14.6
		c112,2.4,224-12.8,336-45.5v-859.8L0-721.6z"/>
	
		<linearGradient id="SVGID_00000022545177522878754680000013881942756611092912_" gradientUnits="userSpaceOnUse" x1="969.4266" y1="-108.5466" x2="970.4266" y2="-108.5466" gradientTransform="matrix(1680 0 0 956.3 -1628630 103559.5859)">
		<stop  offset="0" style="stop-color:#84EACB"/>
		<stop  offset="1" style="stop-color:#3ABAE0"/>
	</linearGradient>
	<path style="opacity:0.4;fill:url(#SVGID_00000022545177522878754680000013881942756611092912_);enable-background:new    ;" d="
		M0-721.6v897c112,4.9,224-6.5,336-34.1s224-13.2,336,43.3s224,53.7,336-8.4s224-58.1,336,11.9c112,70,224,61,336-26.9v-882.8
		L0-721.6z"/>
</g>
</svg>
